<svg width="200" height="201" viewBox="0 0 200 201" fill="none" xmlns="http://www.w3.org/2000/svg">
<circle cx="100" cy="100.448" r="100" fill="black"/>
<mask id="mask0_426_1457" style="mask-type:alpha" maskUnits="userSpaceOnUse" x="0" y="0" width="200" height="201">
<circle cx="100" cy="100.448" r="100" fill="black"/>
</mask>
<g mask="url(#mask0_426_1457)">
<path d="M48.0472 151.692C64.9593 158.381 92.4179 185.388 104.033 198.055C99.1235 203.917 87.4877 215.41 80.2221 214.481C71.1401 213.319 59.2357 189.164 42.142 197.629C25.0482 206.095 20.3438 200.674 20.3229 189.453C20.3019 178.233 12.5991 187.921 -0.979814 193.238C-14.5587 198.555 -20.4959 194.492 -17.9871 181.85C-15.4782 169.209 -47.0079 187.308 -45.4841 176.393C-43.9603 165.479 26.9072 143.33 48.0472 151.692Z" fill="#BFD643"/>
<path d="M164.292 157.848C150.825 166.717 131.885 195.13 124.098 208.228C129.421 212.427 141.602 220.294 147.739 218.172C155.411 215.519 161.369 192.398 177.738 196.649C194.107 200.9 197.209 195.344 195.194 185.601C193.18 175.858 201.62 182.872 214.369 185.027C227.118 187.182 231.535 182.581 227.068 172.063C222.6 161.546 253.244 171.543 249.945 162.347C246.645 153.15 181.126 146.762 164.292 157.848Z" fill="#BFD643"/>
<path d="M114.751 37.2623C107.871 41.6809 101.079 49.2508 99.0115 56.6285C98.8401 56.8905 99.2447 58.0532 102.061 58.9981C105.495 59.3738 107.06 54.2284 109.758 47.762C111.946 42.5155 122.494 33.392 125.811 31.1345C125.553 30.5914 121.758 32.762 114.751 37.2623Z" fill="#BFD643"/>
<path d="M117.26 45.7616C105.761 51.7625 100.998 62.2504 98.9306 69.628C98.7592 69.89 99.1638 71.0527 101.98 71.9976C105.414 72.3733 107.562 63.728 110.26 57.2616C112.448 52.0151 122.258 43.5887 130.756 42.2622C130.498 41.7191 124.508 41.9787 117.26 45.7616Z" fill="#BFD643"/>
<path d="M83.7582 40.4554C90.9497 46.7651 90.954 54.3736 90.9474 59.7191C91.013 59.9274 90.5215 60.6318 88.4512 60.7337C86.0743 60.3368 85.3215 53.8585 84.7325 49.0058C84.2546 45.0686 82.2576 38.262 74.2574 36.7614C74.5335 36.4455 79.4702 36.6933 83.7582 40.4554Z" fill="#BFD643"/>
<path d="M72.4213 46.2378C83.7611 48.2618 85.8959 54.2334 88.7212 58.7713C88.8872 58.9133 88.8432 59.7711 87.1411 60.9539C84.9147 61.8759 80.8453 56.7793 77.7758 52.9749C75.2854 49.8882 68.7576 46.2378 61.2574 47.2618C61.3243 46.8476 66.8057 45.2356 72.4213 46.2378Z" fill="#BFD643"/>
<path d="M172.682 52.3339C164.031 54.6971 145.175 65.8354 142.908 72.7C144.981 75.3619 149.403 80.2621 150.51 78.5678C151.895 76.4498 172.737 53.794 172.682 52.3339Z" fill="#BFD643"/>
<path d="M168.427 55.6599C153.427 62.5122 145.309 73.7782 144.746 74.3903C145.394 75.8354 147.468 77.8944 147.806 77.2076C149.436 73.902 163.062 61.1807 168.427 55.6599Z" fill="#BFD643"/>
<path d="M189.984 61.4771C168.052 71.9445 151.04 72.3628 148.772 79.2274C150.845 81.8893 153.271 86.402 154.599 84.8742C159.376 79.3778 173.241 76.5943 189.984 61.4771Z" fill="#BFD643"/>
<path d="M181.478 66.8992C164.788 73.8687 151.383 78.2191 149.465 77.0215C150.113 78.4666 152.143 84.1766 152.481 83.4898C154.111 80.1842 172.042 73.9534 181.478 66.8992Z" fill="#BFD643"/>
<path d="M26.6084 47.4483C38.3385 54.3579 48.9455 60.8347 50.5313 66.0886C48.9061 68.0679 45.4539 71.6995 44.6468 70.392C43.6379 68.7575 28.5408 56.3174 26.6084 47.4483Z" fill="#BFD643"/>
<path d="M32.0913 53.7036C41.6585 56.5853 48.6905 66.8601 49.106 67.3356C48.5855 68.4195 46.1092 70.6572 45.8657 70.1293C44.694 67.5887 34.3665 58.3787 32.0913 53.7036Z" fill="#BFD643"/>
<path d="M17.2731 57.4485C29.3216 65.3375 43.3719 68.3646 44.9577 73.6186C43.3325 75.5978 41.4026 78.9746 40.4249 77.7892C36.9076 73.5242 19.7722 71.5685 17.2731 57.4485Z" fill="#BFD643"/>
<path d="M21.3472 63.2798C27.4213 67.5646 44.0625 70.1217 43.7515 74.8797C43.231 75.9636 42.3005 77.3076 42.0571 76.7798C40.8854 74.2392 22.5495 69.4733 21.3472 63.2798Z" fill="#BFD643"/>
<path d="M28.8045 88.6523C1.20453 135.052 61.3045 149.652 94.8045 151.152C95.3045 152.986 109.851 141.043 81.8044 186.152C53.7576 231.262 62.2576 270.762 73.3044 285.652C84.3513 300.543 106.426 309.912 131.304 314.152C146.304 316.709 191.804 317.152 214.304 296.152C228.558 282.849 227.304 255.652 201.304 252.152C210.304 256.652 210.804 278.652 195.804 285.652C180.804 292.652 165.304 285.152 161.304 278.152C156.447 269.652 154.804 265.152 153.304 252.152C152.617 246.192 149.898 217.452 153.304 195.652C168.304 99.6523 161.304 88.6516 146.304 73.6523C133.357 60.7056 63.3045 30.6523 28.8045 88.6523Z" fill="#DEFF2B"/>
<path d="M35.2576 122.262C43.2576 129.429 56.7576 138.762 80.7576 140.762C103.727 142.676 123.758 132.19 132.258 122.262" stroke="black" stroke-width="2" stroke-linecap="round"/>
<ellipse cx="68.7576" cy="83.762" rx="19" ry="17.5" fill="white"/>
<ellipse cx="116.758" cy="86.762" rx="19" ry="17.5" fill="white"/>
<circle cx="62.7576" cy="87.262" r="6" fill="black"/>
<circle cx="108.758" cy="87.262" r="6" fill="black"/>
<path d="M90.0014 35.9488C87.5641 44.9486 88.5597 52.5212 90.6711 62.2702C90.6333 62.6761 91.8066 63.7679 95.6233 63.1408C99.8035 61.4832 99.3304 50.5319 98.499 41.4479C97.8245 34.0777 98.499 19.36 105.498 11.4485C94.4983 19.4486 91.6263 29.9489 90.0014 35.9488Z" fill="#BFD643"/>
<path d="M90.7576 47.4484C90.1645 54.5829 91.4682 60.7342 90.7567 64.7618C92.3244 65.9313 93.4846 66.3455 94.2562 66.262C96.2896 66.042 97.7565 64.9542 97.7565 62.2619C97.7565 59.0517 91.2865 44.4484 98.0017 21.4484C98.0017 21.4484 91.1733 42.4487 90.7576 47.4484Z" fill="#DEFF2B"/>
</g>
<path d="M156 98.4485C156 101.762 155.657 104.448 154 104.448C152.343 104.448 150 102.948 150 98.4485C150 95.1348 150.343 91.4485 152 91.4485C153.657 91.4485 156 95.1348 156 98.4485Z" fill="#BFD643"/>
<path d="M148.301 80.2347C149.41 82.9738 150.025 85.3091 148.655 85.8633C147.286 86.4176 144.847 85.9616 143.342 82.2419C142.233 79.5029 141.284 76.341 142.653 75.7867C144.023 75.2325 147.193 77.4957 148.301 80.2347Z" fill="#BFD643"/>
<path d="M159.055 118.486C158.407 121.736 157.546 124.303 155.921 123.98C154.296 123.656 152.291 121.727 153.171 117.313C153.819 114.064 154.876 110.516 156.501 110.839C158.125 111.163 159.703 115.236 159.055 118.486Z" fill="#BFD643"/>
<path d="M157.055 138.486C156.407 141.736 155.546 144.303 153.921 143.98C152.296 143.656 150.291 141.727 151.171 137.313C151.819 134.064 152.876 130.516 154.501 130.839C156.125 131.163 157.703 135.236 157.055 138.486Z" fill="#BFD643"/>
<path d="M156.055 159.486C155.407 162.736 154.546 165.303 152.921 164.98C151.296 164.656 149.291 162.727 150.171 158.313C150.819 155.064 151.876 151.516 153.501 151.839C155.125 152.163 156.703 156.236 156.055 159.486Z" fill="#BFD643"/>
<path d="M151.981 181.335C150.573 184.334 149.12 186.62 147.621 185.916C146.121 185.212 144.637 182.859 146.549 178.785C147.957 175.785 149.834 172.594 151.334 173.298C152.834 174.002 153.389 178.335 151.981 181.335Z" fill="#BFD643"/>
<path d="M127.905 20.804C114.738 14.978 101.08 40.1149 97.2798 53.634C110.43 57.6713 136.587 64.1539 136.016 57.7865C135.302 49.8272 144.364 28.0864 127.905 20.804Z" fill="#E65D26"/>
<path d="M101.399 41.949C84.6934 41.9494 100.24 52.5752 97.0046 56.1159C113.242 58.59 140.728 65.8503 139.409 63.9485C137.76 61.5712 151.904 41.9477 101.399 41.949Z" fill="#E65D26" stroke="black"/>
</svg>
